<?xml version="1.0" encoding="UTF-8"?>
<!DOCTYPE svg PUBLIC "-//W3C//DTD SVG 1.1//EN" "http://www.w3.org/Graphics/SVG/1.1/DTD/svg11.dtd">
<svg xmlns="http://www.w3.org/2000/svg" version="1.1" width="96px" height="96px" style="shape-rendering:geometricPrecision; text-rendering:geometricPrecision; image-rendering:optimizeQuality; fill-rule:evenodd; clip-rule:evenodd" xmlns:xlink="http://www.w3.org/1999/xlink">
<g><path style="opacity:0.984" fill="#d5d9dc" d="M 65.5,25.5 C 65.1667,25.5 64.8333,25.5 64.5,25.5C 55.8846,8.34553 43.2179,4.51219 26.5,14C 23.1199,17.2097 20.7866,21.043 19.5,25.5C 18.1667,25.5 16.8333,25.5 15.5,25.5C 13.9826,25.4894 12.8159,24.8228 12,23.5C 9.49655,16.186 11.9965,12.8526 19.5,13.5C 19.1816,9.31133 20.8482,6.14466 24.5,4C 29.6001,2.80497 34.2668,3.6383 38.5,6.5C 41.438,5.42517 44.438,5.2585 47.5,6C 50.567,8.69346 54.2337,10.0268 58.5,10C 59.5,11 60.5,12 61.5,13C 68.9661,12.8121 71.4661,16.3121 69,23.5C 68.1841,24.8228 67.0174,25.4894 65.5,25.5 Z"/></g>
<g><path style="opacity:1" fill="#eeeeef" d="M 64.5,25.5 C 61.5,25.5 58.5,25.5 55.5,25.5C 55.5,30.8333 55.5,36.1667 55.5,41.5C 55.6633,43.8568 55.4966,46.1902 55,48.5C 53.3333,49.8333 51.6667,49.8333 50,48.5C 49.5034,46.1902 49.3367,43.8568 49.5,41.5C 49.6621,39.4727 49.4955,37.4727 49,35.5C 47.3333,38.1667 45.6667,38.1667 44,35.5C 43.7883,32.2423 43.2883,29.0757 42.5,26C 39.2864,27.4282 35.7864,28.5949 32,29.5C 29.6196,28.7993 27.4529,27.6326 25.5,26C 23.5273,25.5045 21.5273,25.3379 19.5,25.5C 20.7866,21.043 23.1199,17.2097 26.5,14C 43.2179,4.51219 55.8846,8.34553 64.5,25.5 Z"/></g>
<g><path style="opacity:1" fill="#fed707" d="M 15.5,25.5 C 16.8333,25.5 18.1667,25.5 19.5,25.5C 21.5273,25.3379 23.5273,25.5045 25.5,26C 27.4529,27.6326 29.6196,28.7993 32,29.5C 35.7864,28.5949 39.2864,27.4282 42.5,26C 43.2883,29.0757 43.7883,32.2423 44,35.5C 45.6667,38.1667 47.3333,38.1667 49,35.5C 49.4955,37.4727 49.6621,39.4727 49.5,41.5C 38.1667,41.5 26.8333,41.5 15.5,41.5C 15.5,36.1667 15.5,30.8333 15.5,25.5 Z"/></g>
<g><path style="opacity:1" fill="#ffd700" d="M 64.5,25.5 C 64.8333,25.5 65.1667,25.5 65.5,25.5C 65.5,28.8333 65.5,32.1667 65.5,35.5C 65.5,37.5 65.5,39.5 65.5,41.5C 62.1667,41.5 58.8333,41.5 55.5,41.5C 55.5,36.1667 55.5,30.8333 55.5,25.5C 58.5,25.5 61.5,25.5 64.5,25.5 Z"/></g>
<g><path style="opacity:0.995" fill="#fcc900" d="M 65.5,35.5 C 82.8553,31.5301 88.8553,38.1968 83.5,55.5C 88.8553,72.8032 82.8553,79.4699 65.5,75.5C 65.5,74.5 65.5,73.5 65.5,72.5C 65.5,71.5 65.5,70.5 65.5,69.5C 69.5,69.5 73.5,69.5 77.5,69.5C 77.5,60.1667 77.5,50.8333 77.5,41.5C 73.5,41.5 69.5,41.5 65.5,41.5C 65.5,39.5 65.5,37.5 65.5,35.5 Z"/></g>
<g><path style="opacity:1" fill="#e56a01" d="M 15.5,41.5 C 26.8333,41.5 38.1667,41.5 49.5,41.5C 49.3367,43.8568 49.5034,46.1902 50,48.5C 51.6667,49.8333 53.3333,49.8333 55,48.5C 55.4966,46.1902 55.6633,43.8568 55.5,41.5C 58.8333,41.5 62.1667,41.5 65.5,41.5C 65.5,45.5 65.5,49.5 65.5,53.5C 53.4326,53.0499 41.4326,52.0499 29.5,50.5C 26.8333,46.5 24.1667,46.5 21.5,50.5C 19.5648,49.8505 17.5648,49.5172 15.5,49.5C 15.5,46.8333 15.5,44.1667 15.5,41.5 Z"/></g>
<g><path style="opacity:1" fill="#fd9d00" d="M 29.5,50.5 C 28.6615,55.6677 26.1615,56.6677 22,53.5C 21.5172,52.552 21.3505,51.552 21.5,50.5C 24.1667,46.5 26.8333,46.5 29.5,50.5 Z"/></g>
<g><path style="opacity:1" fill="#e87701" d="M 15.5,49.5 C 17.5648,49.5172 19.5648,49.8505 21.5,50.5C 21.3505,51.552 21.5172,52.552 22,53.5C 26.1615,56.6677 28.6615,55.6677 29.5,50.5C 41.4326,52.0499 53.4326,53.0499 65.5,53.5C 65.5,56.8333 65.5,60.1667 65.5,63.5C 56.8729,62.3913 48.2063,61.3913 39.5,60.5C 38.1667,56.5 36.8333,56.5 35.5,60.5C 28.825,59.8932 22.1583,59.2265 15.5,58.5C 15.5,55.5 15.5,52.5 15.5,49.5 Z"/></g>
<g><path style="opacity:1" fill="#fc9b00" d="M 54.5,55.5 C 59.1585,55.0146 60.4919,56.848 58.5,61C 53.7282,61.8104 52.3948,59.9771 54.5,55.5 Z"/></g>
<g><path style="opacity:1" fill="#ea8201" d="M 15.5,58.5 C 22.1583,59.2265 28.825,59.8932 35.5,60.5C 36.8333,61.8333 38.1667,61.8333 39.5,60.5C 48.2063,61.3913 56.8729,62.3913 65.5,63.5C 65.5,65.5 65.5,67.5 65.5,69.5C 65.5,70.5 65.5,71.5 65.5,72.5C 60.1463,72.4312 54.813,72.0978 49.5,71.5C 48.25,66.2546 46.5833,66.2546 44.5,71.5C 40.5548,70.7315 36.5548,70.2315 32.5,70C 30.3822,69.3647 28.3822,68.5314 26.5,67.5C 24.8957,67.9391 23.3957,68.6057 22,69.5C 19.9011,68.7135 17.7345,68.3801 15.5,68.5C 15.5,65.1667 15.5,61.8333 15.5,58.5 Z"/></g>
<g><path style="opacity:1" fill="#fdc262" d="M 39.5,60.5 C 38.1667,61.8333 36.8333,61.8333 35.5,60.5C 36.8333,56.5 38.1667,56.5 39.5,60.5 Z"/></g>
<g><path style="opacity:1" fill="#ef9105" d="M 65.5,72.5 C 65.5,73.5 65.5,74.5 65.5,75.5C 65.5,76.8333 65.5,78.1667 65.5,79.5C 48.8333,79.5 32.1667,79.5 15.5,79.5C 15.5,75.8333 15.5,72.1667 15.5,68.5C 17.7345,68.3801 19.9011,68.7135 22,69.5C 23.3957,68.6057 24.8957,67.9391 26.5,67.5C 28.3822,68.5314 30.3822,69.3647 32.5,70C 36.5548,70.2315 40.5548,70.7315 44.5,71.5C 46.5833,66.2546 48.25,66.2546 49.5,71.5C 54.813,72.0978 60.1463,72.4312 65.5,72.5 Z"/></g>
<g><path style="opacity:0.991" fill="#ffd000" d="M 15.5,79.5 C 32.1667,79.5 48.8333,79.5 65.5,79.5C 65.7683,82.1194 65.435,84.6194 64.5,87C 48.5,87.6667 32.5,87.6667 16.5,87C 15.565,84.6194 15.2317,82.1194 15.5,79.5 Z"/></g>
</svg>
