<?xml version="1.0" encoding="UTF-8"?>
<!DOCTYPE svg PUBLIC "-//W3C//DTD SVG 1.1//EN" "http://www.w3.org/Graphics/SVG/1.1/DTD/svg11.dtd">
<svg xmlns="http://www.w3.org/2000/svg" version="1.1" width="96px" height="96px" style="shape-rendering:geometricPrecision; text-rendering:geometricPrecision; image-rendering:optimizeQuality; fill-rule:evenodd; clip-rule:evenodd" xmlns:xlink="http://www.w3.org/1999/xlink">
<g><path style="opacity:1" fill="#f1505b" d="M 64.5,13.5 C 48.9663,18.9737 33.2996,24.307 17.5,29.5C 17.5,24.1667 17.5,18.8333 17.5,13.5C 33.1667,13.5 48.8333,13.5 64.5,13.5 Z"/></g>
<g><path style="opacity:0.999" fill="#ec4854" d="M 64.5,13.5 C 68.5,13.5 72.5,13.5 76.5,13.5C 76.5299,14.4972 76.0299,15.1639 75,15.5C 55.9002,21.8116 36.7335,27.8116 17.5,33.5C 17.5,32.1667 17.5,30.8333 17.5,29.5C 33.2996,24.307 48.9663,18.9737 64.5,13.5 Z"/></g>
<g><path style="opacity:0.998" fill="#e53d49" d="M 76.5,13.5 C 77.4816,16.9619 77.815,20.6286 77.5,24.5C 59.0646,30.5893 40.5646,36.5893 22,42.5C 20.4053,43.3557 19.572,44.6891 19.5,46.5C 17.9462,42.4333 17.2796,38.1 17.5,33.5C 36.7335,27.8116 55.9002,21.8116 75,15.5C 76.0299,15.1639 76.5299,14.4972 76.5,13.5 Z"/></g>
<g><path style="opacity:0.977" fill="#e9434e" d="M 82.5,29.5 C 85.0593,29.1984 87.3926,29.5318 89.5,30.5C 88.1667,38.5 88.1667,46.5 89.5,54.5C 87.1024,56.9743 84.1024,58.3076 80.5,58.5C 80.5,56.8333 80.5,55.1667 80.5,53.5C 84.1018,53.0652 86.2685,51.0652 87,47.5C 87.6667,43.5 87.6667,39.5 87,35.5C 85.8904,33.9632 84.3904,33.2965 82.5,33.5C 82.5,32.1667 82.5,30.8333 82.5,29.5 Z"/></g>
<g><path style="opacity:0.998" fill="#dd303d" d="M 77.5,24.5 C 77.5,26.1667 77.5,27.8333 77.5,29.5C 79.1667,29.5 80.8333,29.5 82.5,29.5C 82.5,30.8333 82.5,32.1667 82.5,33.5C 80.5853,33.2155 78.9187,33.5489 77.5,34.5C 58.971,41.2319 40.3043,47.5652 21.5,53.5C 20.0762,51.4855 19.4095,49.1522 19.5,46.5C 19.572,44.6891 20.4053,43.3557 22,42.5C 40.5646,36.5893 59.0646,30.5893 77.5,24.5 Z"/></g>
<g><path style="opacity:0.937" fill="#f3535d" d="M 89.5,30.5 C 90.1174,30.6107 90.6174,30.944 91,31.5C 91.6667,38.5 91.6667,45.5 91,52.5C 90.2828,53.0442 89.7828,53.7109 89.5,54.5C 88.1667,46.5 88.1667,38.5 89.5,30.5 Z"/></g>
<g><path style="opacity:0.99" fill="#d52331" d="M 77.5,34.5 C 77.6558,38.7643 76.9891,42.7643 75.5,46.5C 59.3947,51.6808 42.8947,57.0141 26,62.5C 24.9701,62.8361 24.4701,63.5028 24.5,64.5C 22.9257,61.0935 21.9257,57.4268 21.5,53.5C 40.3043,47.5652 58.971,41.2319 77.5,34.5 Z"/></g>
<g><path style="opacity:0.995" fill="#cf1928" d="M 75.5,46.5 C 75.0653,49.596 74.5653,52.596 74,55.5C 76.0871,54.6028 78.2537,53.9361 80.5,53.5C 80.5,55.1667 80.5,56.8333 80.5,58.5C 77.698,59.5759 74.8646,60.5759 72,61.5C 70.5226,65.4299 69.3559,69.4299 68.5,73.5C 54.5,73.5 40.5,73.5 26.5,73.5C 25.8333,70.5 25.1667,67.5 24.5,64.5C 24.4701,63.5028 24.9701,62.8361 26,62.5C 42.8947,57.0141 59.3947,51.6808 75.5,46.5 Z"/></g>
<g><path style="opacity:0.998" fill="#f3545f" d="M 26.5,73.5 C 40.5,73.5 54.5,73.5 68.5,73.5C 74.8333,73.5 81.1667,73.5 87.5,73.5C 87.7373,74.791 87.404,75.791 86.5,76.5C 60.5,76.5 34.5,76.5 8.5,76.5C 7.59603,75.791 7.26269,74.791 7.5,73.5C 13.8333,73.5 20.1667,73.5 26.5,73.5 Z"/></g>
<g><path style="opacity:0.993" fill="#eb4652" d="M 8.5,76.5 C 34.5,76.5 60.5,76.5 86.5,76.5C 86.6716,77.4916 86.3382,78.1583 85.5,78.5C 60.1667,78.5 34.8333,78.5 9.5,78.5C 8.66175,78.1583 8.32842,77.4916 8.5,76.5 Z"/></g>
<g><path style="opacity:0.983" fill="#e03543" d="M 9.5,78.5 C 34.8333,78.5 60.1667,78.5 85.5,78.5C 84.9423,79.7899 83.9423,80.6232 82.5,81C 59.1667,81.6667 35.8333,81.6667 12.5,81C 11.0577,80.6232 10.0577,79.7899 9.5,78.5 Z"/></g>
</svg>
