<?xml version="1.0" encoding="UTF-8"?>
<!DOCTYPE svg PUBLIC "-//W3C//DTD SVG 1.1//EN" "http://www.w3.org/Graphics/SVG/1.1/DTD/svg11.dtd">
<svg xmlns="http://www.w3.org/2000/svg" version="1.1" width="96px" height="96px" style="shape-rendering:geometricPrecision; text-rendering:geometricPrecision; image-rendering:optimizeQuality; fill-rule:evenodd; clip-rule:evenodd" xmlns:xlink="http://www.w3.org/1999/xlink">
<g><path style="opacity:0.951" fill="#2eb9ed" d="M 44.5,18.5 C 36.5,19.1667 28.5,19.8333 20.5,20.5C 18.2465,18.4092 16.5799,15.9092 15.5,13C 15.7549,11.6739 16.4216,10.6739 17.5,10C 21.5,9.33333 25.5,9.33333 29.5,10C 34.5625,12.8607 39.5625,15.694 44.5,18.5 Z"/></g>
<g><path style="opacity:0.974" fill="#29b2ea" d="M 64.5,24.5 C 50.5,24.5 36.5,24.5 22.5,24.5C 21.6554,23.3285 20.9887,21.9952 20.5,20.5C 28.5,19.8333 36.5,19.1667 44.5,18.5C 48.1817,18.6653 51.8484,18.4986 55.5,18C 57.9088,16.2932 60.5755,15.4598 63.5,15.5C 64.1587,18.4552 64.4921,21.4552 64.5,24.5 Z"/></g>
<g><path style="opacity:0.982" fill="#24abe7" d="M 71.5,23.5 C 71.3653,25.5542 72.032,27.2209 73.5,28.5C 70.5794,28.2826 67.9128,28.9493 65.5,30.5C 51.0882,30.1844 36.7548,30.5178 22.5,31.5C 22.5,29.1667 22.5,26.8333 22.5,24.5C 36.5,24.5 50.5,24.5 64.5,24.5C 66.7638,23.7814 69.0971,23.448 71.5,23.5 Z"/></g>
<g><path style="opacity:0.99" fill="#20a5e5" d="M 65.5,30.5 C 65.448,32.9029 65.7814,35.2362 66.5,37.5C 63.1667,37.5 59.8333,37.5 56.5,37.5C 48.5,37.5 40.5,37.5 32.5,37.5C 29.1667,37.5 25.8333,37.5 22.5,37.5C 22.5,35.5 22.5,33.5 22.5,31.5C 36.7548,30.5178 51.0882,30.1844 65.5,30.5 Z"/></g>
<g><path style="opacity:0.926" fill="#2eb7ec" d="M 71.5,23.5 C 84.4138,24.5991 89.5804,31.5991 87,44.5C 85.1656,49.6616 82.4989,54.3283 79,58.5C 76.2337,61.7768 73.067,64.4434 69.5,66.5C 69.5,64.8333 69.5,63.1667 69.5,61.5C 69.5,60.8333 69.5,60.1667 69.5,59.5C 79.4595,52.9331 83.2928,43.9331 81,32.5C 79.117,29.9756 76.617,28.6423 73.5,28.5C 72.032,27.2209 71.3653,25.5542 71.5,23.5 Z"/></g>
<g><path style="opacity:0.989" fill="#e6e8ea" d="M 22.5,37.5 C 25.8333,37.5 29.1667,37.5 32.5,37.5C 33.1584,44.8251 37.1584,48.8251 44.5,49.5C 51.8269,48.8398 55.8269,44.8398 56.5,37.5C 59.8333,37.5 63.1667,37.5 66.5,37.5C 66.366,39.2915 66.6993,40.9582 67.5,42.5C 60.0992,58.9147 48.0992,63.4147 31.5,56C 26.4965,51.806 23.1631,46.6393 21.5,40.5C 21.5569,39.391 21.8902,38.391 22.5,37.5 Z"/></g>
<g><path style="opacity:0.977" fill="#e0e3e5" d="M 21.5,40.5 C 23.1631,46.6393 26.4965,51.806 31.5,56C 48.0992,63.4147 60.0992,58.9147 67.5,42.5C 67.9422,46.1545 68.2756,49.8212 68.5,53.5C 68.0287,57.5025 66.0287,60.6692 62.5,63C 44.677,72.6244 29.677,69.4577 17.5,53.5C 18.8333,49.1667 20.1667,44.8333 21.5,40.5 Z"/></g>
<g><path style="opacity:1" fill="#f2f2f3" d="M 32.5,37.5 C 40.5,37.5 48.5,37.5 56.5,37.5C 55.8269,44.8398 51.8269,48.8398 44.5,49.5C 37.1584,48.8251 33.1584,44.8251 32.5,37.5 Z"/></g>
<g><path style="opacity:0.993" fill="#d9dddf" d="M 17.5,53.5 C 29.677,69.4577 44.677,72.6244 62.5,63C 66.0287,60.6692 68.0287,57.5025 68.5,53.5C 69.4614,55.2646 69.7947,57.2646 69.5,59.5C 69.5,60.1667 69.5,60.8333 69.5,61.5C 68.8923,64.9583 66.8923,67.4583 63.5,69C 45.3931,77.8112 29.3931,74.9779 15.5,60.5C 16.0147,58.1055 16.6814,55.7722 17.5,53.5 Z"/></g>
<g><path style="opacity:0.99" fill="#d2d7d9" d="M 15.5,60.5 C 29.3931,74.9779 45.3931,77.8112 63.5,69C 66.8923,67.4583 68.8923,64.9583 69.5,61.5C 69.5,63.1667 69.5,64.8333 69.5,66.5C 69.7847,69.8291 69.1181,72.8291 67.5,75.5C 67.44,74.9569 67.1067,74.6236 66.5,74.5C 52.0553,81.2809 37.7219,81.1142 23.5,74C 20.2744,71.9364 17.6077,69.4364 15.5,66.5C 15.5,64.5 15.5,62.5 15.5,60.5 Z"/></g>
<g><path style="opacity:0.982" fill="#cbd0d3" d="M 15.5,66.5 C 17.6077,69.4364 20.2744,71.9364 23.5,74C 37.7219,81.1142 52.0553,81.2809 66.5,74.5C 67.1067,74.6236 67.44,74.9569 67.5,75.5C 65.1543,80.6714 61.1543,83.8381 55.5,85C 46.8333,85.6667 38.1667,85.6667 29.5,85C 20.1044,82.3632 15.4377,76.1965 15.5,66.5 Z"/></g>
</svg>
