<?xml version="1.0" encoding="UTF-8"?>
<!DOCTYPE svg PUBLIC "-//W3C//DTD SVG 1.1//EN" "http://www.w3.org/Graphics/SVG/1.1/DTD/svg11.dtd">
<svg xmlns="http://www.w3.org/2000/svg" version="1.1" width="96px" height="96px" style="shape-rendering:geometricPrecision; text-rendering:geometricPrecision; image-rendering:optimizeQuality; fill-rule:evenodd; clip-rule:evenodd" xmlns:xlink="http://www.w3.org/1999/xlink">
<g><path style="opacity:0.966" fill="#ec3a46" d="M 53.5,9.5 C 49.5,9.5 45.5,9.5 41.5,9.5C 39.6921,8.08209 39.0254,6.08209 39.5,3.5C 44.8333,3.5 50.1667,3.5 55.5,3.5C 55.9746,6.08209 55.3079,8.08209 53.5,9.5 Z"/></g>
<g><path style="opacity:1" fill="#29afe9" d="M 41.5,9.5 C 45.5,9.5 49.5,9.5 53.5,9.5C 53.5,12.5 53.5,15.5 53.5,18.5C 49.5,18.5 45.5,18.5 41.5,18.5C 41.5,15.5 41.5,12.5 41.5,9.5 Z"/></g>
<g><path style="opacity:0.975" fill="#9c4821" d="M 41.5,18.5 C 45.5,18.5 49.5,18.5 53.5,18.5C 57.6374,25.1084 60.9707,32.1084 63.5,39.5C 52.8333,39.5 42.1667,39.5 31.5,39.5C 34.0293,32.1084 37.3626,25.1084 41.5,18.5 Z"/></g>
<g><path style="opacity:1" fill="#ee414d" d="M 31.5,39.5 C 42.1667,39.5 52.8333,39.5 63.5,39.5C 64.4872,44.3054 64.8205,49.3054 64.5,54.5C 53.1667,53.1667 41.8333,53.1667 30.5,54.5C 30.1795,49.3054 30.5128,44.3054 31.5,39.5 Z"/></g>
<g><path style="opacity:1" fill="#e82f3c" d="M 64.5,54.5 C 63.9346,56.9521 63.2679,59.2854 62.5,61.5C 52.5,61.5 42.5,61.5 32.5,61.5C 31.7321,59.2854 31.0654,56.9521 30.5,54.5C 41.8333,53.1667 53.1667,53.1667 64.5,54.5 Z"/></g>
<g><path style="opacity:0.966" fill="#8c3917" d="M 32.5,61.5 C 42.5,61.5 52.5,61.5 62.5,61.5C 62.3243,66.8797 62.6576,72.213 63.5,77.5C 52.8333,78.8333 42.1667,78.8333 31.5,77.5C 32.3424,72.213 32.6757,66.8797 32.5,61.5 Z"/></g>
<g><path style="opacity:0.983" fill="#873414" d="M 31.5,77.5 C 42.1667,78.8333 52.8333,78.8333 63.5,77.5C 65.6431,81.7828 65.9764,86.2828 64.5,91C 58.9131,92.0938 53.2465,92.5938 47.5,92.5C 41.7535,92.5938 36.0869,92.0938 30.5,91C 29.0236,86.2828 29.3569,81.7828 31.5,77.5 Z"/></g>
</svg>
