<?xml version="1.0" encoding="UTF-8"?>
<!DOCTYPE svg PUBLIC "-//W3C//DTD SVG 1.1//EN" "http://www.w3.org/Graphics/SVG/1.1/DTD/svg11.dtd">
<svg xmlns="http://www.w3.org/2000/svg" version="1.1" width="96px" height="96px" style="shape-rendering:geometricPrecision; text-rendering:geometricPrecision; image-rendering:optimizeQuality; fill-rule:evenodd; clip-rule:evenodd" xmlns:xlink="http://www.w3.org/1999/xlink">
<g><path style="opacity:0.994" fill="#ce1827" d="M 43.5,3.5 C 44.8333,3.5 46.1667,3.5 47.5,3.5C 47.5,8.16667 47.5,12.8333 47.5,17.5C 46.1667,17.5 44.8333,17.5 43.5,17.5C 43.5,12.8333 43.5,8.16667 43.5,3.5 Z"/></g>
<g><path style="opacity:0.991" fill="#ce1827" d="M 31.5,7.5 C 32.8333,7.5 34.1667,7.5 35.5,7.5C 35.5,10.8333 35.5,14.1667 35.5,17.5C 34.1667,17.5 32.8333,17.5 31.5,17.5C 31.5,14.1667 31.5,10.8333 31.5,7.5 Z"/></g>
<g><path style="opacity:0.991" fill="#ce1827" d="M 55.5,7.5 C 56.8333,7.5 58.1667,7.5 59.5,7.5C 59.5,10.8333 59.5,14.1667 59.5,17.5C 58.1667,17.5 56.8333,17.5 55.5,17.5C 55.5,14.1667 55.5,10.8333 55.5,7.5 Z"/></g>
<g><path style="opacity:1" fill="#32c380" d="M 77.5,33.5 C 56.1667,33.5 34.8333,33.5 13.5,33.5C 13.5,29.5 13.5,25.5 13.5,21.5C 34.8333,21.5 56.1667,21.5 77.5,21.5C 77.5,25.5 77.5,29.5 77.5,33.5 Z"/></g>
<g><path style="opacity:1" fill="#19a05a" d="M 13.5,33.5 C 34.8333,33.5 56.1667,33.5 77.5,33.5C 77.6399,35.1238 76.9733,36.2904 75.5,37C 54.8448,43.2746 34.1781,49.4413 13.5,55.5C 13.5,48.1667 13.5,40.8333 13.5,33.5 Z"/></g>
<g><path style="opacity:0.997" fill="#169a55" d="M 77.5,33.5 C 81.5138,33.3345 85.5138,33.5012 89.5,34C 90,34.5 90.5,35 91,35.5C 91.6667,44.1667 91.6667,52.8333 91,61.5C 89.9455,64.0559 88.1122,65.7225 85.5,66.5C 84.6993,64.9582 84.366,63.2915 84.5,61.5C 85.8005,60.1184 86.6339,58.4517 87,56.5C 87.6667,50.8333 87.6667,45.1667 87,39.5C 84.1737,37.6602 81.0071,36.9935 77.5,37.5C 77.5,40.8333 77.5,44.1667 77.5,47.5C 56.4251,53.6365 35.4251,59.9699 14.5,66.5C 13.5184,63.0381 13.185,59.3714 13.5,55.5C 34.1781,49.4413 54.8448,43.2746 75.5,37C 76.9733,36.2904 77.6399,35.1238 77.5,33.5 Z M 84.5,61.5 C 82.2186,62.2071 80.0519,63.2071 78,64.5C 77.5034,62.1902 77.3367,59.8568 77.5,57.5C 77.5,54.1667 77.5,50.8333 77.5,47.5C 77.5,44.1667 77.5,40.8333 77.5,37.5C 81.0071,36.9935 84.1737,37.6602 87,39.5C 87.6667,45.1667 87.6667,50.8333 87,56.5C 86.6339,58.4517 85.8005,60.1184 84.5,61.5 Z"/></g>
<g><path style="opacity:0.996" fill="#11924e" d="M 77.5,47.5 C 77.5,50.8333 77.5,54.1667 77.5,57.5C 57.4539,62.7931 37.6206,68.7931 18,75.5C 17.7216,74.5842 17.2216,73.9175 16.5,73.5C 15.0762,71.4855 14.4095,69.1522 14.5,66.5C 35.4251,59.9699 56.4251,53.6365 77.5,47.5 Z"/></g>
<g><path style="opacity:0.996" fill="#0d8a48" d="M 77.5,57.5 C 77.3367,59.8568 77.5034,62.1902 78,64.5C 80.0519,63.2071 82.2186,62.2071 84.5,61.5C 84.366,63.2915 84.6993,64.9582 85.5,66.5C 82.6439,68.0934 79.6439,69.4267 76.5,70.5C 74.7687,74.0277 73.4354,77.6944 72.5,81.5C 54.5,81.5 36.5,81.5 18.5,81.5C 17.6295,78.8877 16.9628,76.221 16.5,73.5C 17.2216,73.9175 17.7216,74.5842 18,75.5C 37.6206,68.7931 57.4539,62.7931 77.5,57.5 Z"/></g>
<g><path style="opacity:0.988" fill="#d8e2eb" d="M 18.5,81.5 C 36.5,81.5 54.5,81.5 72.5,81.5C 76.8333,81.5 81.1667,81.5 85.5,81.5C 85.5674,82.9587 85.2341,84.2921 84.5,85.5C 58.5,85.5 32.5,85.5 6.5,85.5C 5.76589,84.2921 5.43255,82.9587 5.5,81.5C 9.83333,81.5 14.1667,81.5 18.5,81.5 Z"/></g>
<g><path style="opacity:0.981" fill="#c6cfd8" d="M 6.5,85.5 C 32.5,85.5 58.5,85.5 84.5,85.5C 83.657,87.1733 82.3237,88.34 80.5,89C 57.1667,89.6667 33.8333,89.6667 10.5,89C 8.67634,88.34 7.34301,87.1733 6.5,85.5 Z"/></g>
</svg>
