<?xml version="1.0" encoding="UTF-8"?>
<!DOCTYPE svg PUBLIC "-//W3C//DTD SVG 1.1//EN" "http://www.w3.org/Graphics/SVG/1.1/DTD/svg11.dtd">
<svg xmlns="http://www.w3.org/2000/svg" version="1.1" width="96px" height="96px" style="shape-rendering:geometricPrecision; text-rendering:geometricPrecision; image-rendering:optimizeQuality; fill-rule:evenodd; clip-rule:evenodd" xmlns:xlink="http://www.w3.org/1999/xlink">
<g><path style="opacity:1" fill="#105b9d" d="M 54.5,13.5 C 49.8333,13.5 45.1667,13.5 40.5,13.5C 39.5269,11.0521 39.1936,8.38544 39.5,5.5C 44.8333,5.5 50.1667,5.5 55.5,5.5C 55.8064,8.38544 55.4731,11.0521 54.5,13.5 Z"/></g>
<g><path style="opacity:0.98" fill="#31bcee" d="M 40.5,13.5 C 45.1667,13.5 49.8333,13.5 54.5,13.5C 57.7961,17.2976 61.2961,20.9643 65,24.5C 65.4935,26.1341 65.6602,27.8008 65.5,29.5C 53.5,29.5 41.5,29.5 29.5,29.5C 29.3398,27.8008 29.5065,26.1341 30,24.5C 33.7039,20.9643 37.2039,17.2976 40.5,13.5 Z"/></g>
<g><path style="opacity:1" fill="#1791e7" d="M 29.5,29.5 C 41.5,29.5 53.5,29.5 65.5,29.5C 65.6657,33.8461 65.499,38.1794 65,42.5C 63.2591,43.7577 61.4258,44.7577 59.5,45.5C 49.5798,48.48 39.5798,51.1467 29.5,53.5C 29.3505,52.448 29.5172,51.448 30,50.5C 31.9252,49.1196 33.7585,47.6196 35.5,46C 33.6667,44.8333 31.8333,43.6667 30,42.5C 29.501,38.1794 29.3343,33.8461 29.5,29.5 Z"/></g>
<g><path style="opacity:1" fill="#0f89e2" d="M 59.5,45.5 C 60.976,47.5 62.8094,49.1666 65,50.5C 65.4935,52.1341 65.6602,53.8008 65.5,55.5C 53.443,58.6301 41.443,61.9635 29.5,65.5C 29.5,61.5 29.5,57.5 29.5,53.5C 39.5798,51.1467 49.5798,48.48 59.5,45.5 Z"/></g>
<g><path style="opacity:1" fill="#0882de" d="M 65.5,55.5 C 65.5,59.1667 65.5,62.8333 65.5,66.5C 53.557,70.0365 41.557,73.3699 29.5,76.5C 29.5,72.8333 29.5,69.1667 29.5,65.5C 41.443,61.9635 53.443,58.6301 65.5,55.5 Z"/></g>
<g><path style="opacity:1" fill="#027bda" d="M 65.5,66.5 C 65.8142,74.0871 65.4808,81.5871 64.5,89C 53.1667,89.6667 41.8333,89.6667 30.5,89C 29.5363,84.9341 29.203,80.7675 29.5,76.5C 41.557,73.3699 53.557,70.0365 65.5,66.5 Z"/></g>
</svg>
